<svg xmlns="http://www.w3.org/2000/svg" style="font-size:90px" viewBox="0 0 64 64" fill="none">
 
 <circle cx="32" cy="24" r="14" stroke="#182c59" stroke-width="3"></circle>
 <path d="M18 24H46" stroke="#182c59" stroke-width="2"></path>
 <path d="M32 10C36 14 38 19 38 24C38 29 36 34 32 38C28 34 26 29 26 24C26 19 28 14 32 10Z" stroke="#182c59" stroke-width="2"></path>
 
 <path d="M50 18C50 22 45 28 45 28C45 28 40 22 40 18C40 15 42 13 45 13C48 13 50 15 50 18Z" fill="#ff1803"></path>
 <circle cx="45" cy="18" r="2" fill="#182c59"></circle>
 
 <circle cx="22" cy="48" r="5" fill="#182c59"></circle>
 <circle cx="32" cy="44" r="6" fill="#ff1803"></circle>
 <circle cx="42" cy="48" r="5" fill="#182c59"></circle>
 
 <path d="M14 58C14 53 18 50 22 50C26 50 30 53 30 58" stroke="#182c59" stroke-width="3" stroke-linecap="round"></path>
 <path d="M23 58C23 52 27 49 32 49C37 49 41 52 41 58" stroke="#182c59" stroke-width="3" stroke-linecap="round"></path>
 <path d="M34 58C34 53 38 50 42 50C46 50 50 53 50 58" stroke="#182c59" stroke-width="3" stroke-linecap="round"></path>
 </svg>