<svg xmlns="http://www.w3.org/2000/svg" style="font-size:90px" viewBox="0 0 64 64" fill="none">
 
 <path d="M10 24L32 12L54 24V50H10V24Z" fill="#182c59"></path>
 
 <path d="M6 24L32 8L58 24" stroke="#182c59" stroke-width="3" stroke-linecap="round" stroke-linejoin="round"></path>
 
 <rect x="28" y="38" width="8" height="12" rx="1" fill="#ff1803"></rect>
 
 <rect x="18" y="28" width="5" height="5" fill="white"></rect>
 <rect x="41" y="28" width="5" height="5" fill="white"></rect>
 <rect x="18" y="38" width="5" height="5" fill="white"></rect>
 <rect x="41" y="38" width="5" height="5" fill="white"></rect>
 
 <circle cx="50" cy="14" r="6" fill="#ff1803"></circle>
 <path d="M42 26C42 21 45 18 50 18C55 18 58 21 58 26" stroke="#182c59" stroke-width="3" stroke-linecap="round"></path>
 
 <circle cx="12" cy="56" r="3" fill="#ff1803"></circle>
 <circle cx="32" cy="56" r="3" fill="#ff1803"></circle>
 <circle cx="52" cy="56" r="3" fill="#ff1803"></circle>
 <path d="M15 56H29" stroke="#182c59" stroke-width="2.5" stroke-linecap="round"></path>
 <path d="M35 56H49" stroke="#182c59" stroke-width="2.5" stroke-linecap="round"></path>
 </svg>