<svg xmlns="http://www.w3.org/2000/svg" style="font-size:90px" viewBox="0 0 64 64" fill="none">
 
 <circle cx="24" cy="24" r="14" stroke="#182c59" stroke-width="3"></circle>
 <path d="M10 24H38" stroke="#182c59" stroke-width="2"></path>
 <path d="M24 10C28 14 30 19 30 24C30 29 28 34 24 38C20 34 18 29 18 24C18 19 20 14 24 10Z" stroke="#182c59" stroke-width="2"></path>
 
 <rect x="40" y="38" width="6" height="12" rx="1" fill="#182c59"></rect>
 <rect x="50" y="30" width="6" height="20" rx="1" fill="#ff1803"></rect>
 <rect x="30" y="44" width="6" height="6" rx="1" fill="#182c59"></rect>
 
 <path d="M20 46L32 36L42 40L54 20" stroke="#182c59" stroke-width="3" stroke-linecap="round" stroke-linejoin="round"></path>
 <path d="M48 20H54V26" stroke="#182c59" stroke-width="3" stroke-linecap="round" stroke-linejoin="round"></path>
 
 <circle cx="20" cy="46" r="3" fill="#ff1803"></circle>
 <circle cx="32" cy="36" r="3" fill="#ff1803"></circle>
 <circle cx="42" cy="40" r="3" fill="#ff1803"></circle>
 <circle cx="54" cy="20" r="3" fill="#ff1803"></circle>
 </svg>